# xmcd
#
# Track frame offsets:
#	150
#	9620
#	21598
#	33423
#	49646
#	64603
#	78703
#	93441
#	113046
#	130794
#	141065
#	158331
#	172237
#	188928
#
# Disc length: 2733 seconds
#
# Revision: 2
# Processed by: cddbd v1.5.2PL0 Copyright (c) Steve Scherf et al.
# Submitted via: audiograbber 1.83.01
#
DISCID=b70aab0e
DTITLE=Various Artist - I de saligas land, Sånger om himlen
DYEAR=2005
DGENRE=Contemporary ChristianChristian Rock
TTITLE0=Gun Ström - I de saligas land
TTITLE1=Lillian and Nils Stenlund - Där midnattsolens skapare ger fest
TTITLE2=Sångensemble - Från alla länder
TTITLE3=Gun Ström - Tänk när jag min Herre skådar
TTITLE4=Irene and Robert Johansson - Mitt hem är där på den andra stranden
TTITLE5=Lennart Larsson - Omstrålad port
TTITLE6=Christel Brage - Det finns ett land
TTITLE7=Lillian and Nils Stenlund - Livets land
TTITLE8=Irene and Robert Johansson - I världar av ljus
TTITLE9=Sångensemble - Jag skall sova, men ej evigt
TTITLE10=Gun Ström - Där aldrig mer du gråter
TTITLE11=Lillian and Nils Stenlund - Hur skall inte himlen vara då
TTITLE12=Christel Brage - Ett barn i Guds famn
TTITLE13=Lennart Larsson - Hjemme i himlen
EXTD=SOLBRI CD 05-01\nSweden
EXTT0=
EXTT1=
EXTT2=
EXTT3=
EXTT4=
EXTT5=
EXTT6=
EXTT7=
EXTT8=
EXTT9=
EXTT10=
EXTT11=
EXTT12=
EXTT13=
PLAYORDER=
